<svg width="100" height="123" viewBox="0 0 100 123" fill="none" xmlns="http://www.w3.org/2000/svg">
<path d="M6.43702e-05 63.6703C0.000186058 40.4988 26.577 27.3923 44.9605 41.4979L50.7067 45.907C50.9516 46.0949 51.2931 46.0912 51.5338 45.898L55.3517 42.8338C73.3247 28.4091 99.9998 41.2041 99.9997 64.2498V64.2498C99.9997 71.7116 96.963 78.8521 91.5885 84.0283L56.55 117.774C53.5019 120.71 48.6948 120.764 45.5816 117.897L9.0171 84.2301C3.26992 78.9383 2.3343e-05 71.4826 6.43702e-05 63.6703V63.6703Z" fill="#8584FF"/>
<path d="M6.43702e-05 56.6703C0.000186058 33.4988 26.577 20.3923 44.9605 34.4979L50.7067 38.907C50.9516 39.0949 51.2931 39.0912 51.5337 38.898L55.3517 35.8338C73.3247 21.4091 99.9998 34.2041 99.9997 57.2498V57.2498C99.9997 64.7116 96.963 71.8521 91.5885 77.0283L56.55 110.774C53.5019 113.71 48.6948 113.764 45.5816 110.897L9.0171 77.2301C3.26993 71.9383 2.3343e-05 64.4826 6.43702e-05 56.6703V56.6703Z" fill="#B6B5FF"/>
<path d="M72.4298 38.9842C74.558 36.856 77.833 36.3819 80.4773 37.8192L82.34 38.8317C85.0673 40.314 87.3181 42.5395 88.8311 45.2498L90.0589 47.4491C91.5448 50.1106 91.0827 53.4351 88.9273 55.5905V55.5905C85.7296 58.7881 80.3615 58.042 78.1572 54.0934L78.0651 53.9285C77.0405 52.0933 75.5164 50.5863 73.6697 49.5825V49.5825C69.8409 47.5015 69.0912 42.3228 72.1727 39.2414L72.4298 38.9842Z" fill="#D0CEFF"/>
</svg>
