<svg width="77" height="100" viewBox="0 0 77 100" fill="none" xmlns="http://www.w3.org/2000/svg">
<path d="M0 9C0 4.02943 4.02944 0 9 0H43.2721C45.659 0 47.9482 0.948212 49.636 2.63604L74.364 27.364C76.0518 29.0518 77 31.341 77 33.7279V50V91C77 95.9706 72.9706 100 68 100H9C4.02944 100 0 95.9706 0 91V9Z" fill="#8584FF"/>
<path d="M0 9C0 4.02943 4.02944 0 9 0H38C42.9706 0 47 4.02944 47 9V21C47 25.9706 51.0294 30 56 30H68C72.9706 30 77 34.0294 77 39V50V91C77 95.9706 72.9706 100 68 100H9C4.02944 100 0 95.9706 0 91V9Z" fill="#D0CEFF"/>
<rect x="32" y="54" width="14" height="36" rx="7" fill="#8584FF"/>
<rect width="14" height="14" rx="7" transform="matrix(1 0 0 -1 32 50)" fill="#8584FF"/>
</svg>
